<?xml version="1.0" encoding="UTF-8"?>
<svg version="1.1" xmlns="http://www.w3.org/2000/svg" width="5282" height="1894">
<path d="M0 0 C4.62862106 0.00008059 9.25714172 -0.00676772 13.88574219 -0.02050781 C54.95260347 -0.14031999 95.91646505 0.8652557 136.87426758 3.99780273 C138.5585788 4.12377335 138.5585788 4.12377335 140.2769165 4.25228882 C236.00233178 11.44746693 331.59506637 26.89353006 500.31176758 89.18530273 C501.27421387 89.64195312 502.23666016 90.09860352 503.22827148 90.5690918 C552.48258817 114.05772865 600.57681145 146.48261913 636.31176758 188.18530273 C637.10623291 189.09602539 637.10623291 189.09602539 637.91674805 190.02514648 C682.40658629 241.21667085 703.92193957 304.14887544 703.67253113 371.44421387 C703.67384251 374.113059 703.67634974 376.78187923 703.68029863 379.45071936 C703.68645641 385.20759745 703.68169881 390.96438158 703.669384 396.72124863 C703.65112446 405.28120429 703.65039076 413.84110191 703.65300997 422.40107351 C703.65693329 436.80693575 703.64699777 451.21275641 703.62895775 465.61860657 C703.61116118 479.86680813 703.59965076 494.11499236 703.59639931 508.36320496 C703.59619309 509.25158984 703.59598687 510.13997472 703.5957744 511.05528035 C703.5947593 515.56757417 703.59385518 520.07986799 703.59299377 524.59216183 C703.58670504 556.49073358 703.56652799 588.38928275 703.53808594 620.2878418 C703.51049974 651.26244999 703.48931582 682.23705193 703.4765625 713.21166992 C703.47575057 715.16197801 703.47493846 717.11228609 703.47412616 719.06259418 C703.46755913 734.91156729 703.46143168 750.76054058 703.45541071 766.60951391 C703.42728897 839.80146491 703.36706707 912.99335695 703.31176758 986.18530273 C577.91176758 986.18530273 452.51176758 986.18530273 323.31176758 986.18530273 C313.74176758 952.77280273 304.17176758 919.36030273 294.31176758 884.93530273 C291.28375977 874.37369141 288.25575195 863.81208008 285.13598633 852.93041992 C281.4543457 840.06274414 281.4543457 840.06274414 279.73388672 834.04449463 C278.52813304 829.82809361 277.31940009 825.61255891 276.10888672 821.39752197 C274.56661246 816.02692164 273.02937414 810.65490454 271.49582863 805.28180552 C270.93108674 803.30639933 270.364552 801.33150464 269.79605675 799.35717535 C269.03039144 796.69714213 268.27120877 794.03534331 267.51367188 791.37298584 C267.28806076 790.5949976 267.06244965 789.81700935 266.83000183 789.01544571 C265.85606549 785.56829198 265.31176758 782.79953595 265.31176758 779.18530273 C264.65176758 779.18530273 263.99176758 779.18530273 263.31176758 779.18530273 C263.03953369 779.92611084 262.7672998 780.66691895 262.48681641 781.43017578 C261.3777114 784.03068481 260.18346527 786.00267239 258.51098633 788.26733398 C257.95258057 789.02651123 257.3941748 789.78568848 256.81884766 790.56787109 C255.91815552 791.77068726 255.91815552 791.77068726 254.99926758 792.99780273 C254.37624756 793.83512939 253.75322754 794.67245605 253.11132812 795.53515625 C244.50399593 807.02646128 235.52033208 818.10303901 225.71801758 828.59545898 C223.73305497 830.73187166 221.82245269 832.89972789 219.93676758 835.12280273 C212.99415143 843.11935821 205.31925994 850.68050672 197.24536133 857.52905273 C195.00839823 859.4451585 192.8537318 861.4404313 190.68676758 863.43530273 C185.12697174 868.43911899 179.30272198 873.05788628 173.37084961 877.60620117 C171.94477074 878.69985521 170.52144694 879.79710759 169.1003418 880.8972168 C95.06704957 938.11395325 5.52575611 973.44611426 -220.68823242 1013.18530273 C-222.50267601 1013.3251635 -222.50267601 1013.3251635 -224.35377502 1013.46784973 C-249.69578716 1015.34718765 -274.99395383 1015.54610598 -300.39585876 1015.50315857 C-303.73115146 1015.49773292 -307.06643709 1015.49535545 -310.4017334 1015.49328613 C-341.0689485 1015.46361908 -371.61619297 1015.22142838 -402.1774292 1012.41314697 C-404.74481276 1012.18016832 -407.31310115 1011.96194197 -409.88208008 1011.74731445 C-497.14743419 1004.40115549 -588.72973504 987.04795084 -714.68823242 906.18530273 C-716.09834689 904.9486248 -717.51456843 903.718858 -718.93823242 902.49780273 C-726.35701243 896.01201331 -732.52848576 888.87164172 -738.68823242 881.18530273 C-739.35983398 880.38092773 -740.03143555 879.57655273 -740.72338867 878.74780273 C-775.50671208 836.70354701 -787.14403785 782.33876065 -782.41088867 728.95874023 C-779.40821303 699.05023262 -770.00158155 670.57472247 -755.68823242 644.18530273 C-755.32536133 643.51466797 -754.96249023 642.8440332 -754.58862305 642.15307617 C-742.03667906 619.26360173 -725.37329718 599.74592769 -707.06323242 581.31030273 C-706.34117111 580.58006897 -706.34117111 580.58006897 -705.60452271 579.83508301 C-698.97941282 573.15419075 -692.04488153 567.0514477 -684.68823242 561.18530273 C-683.64889787 560.3102606 -682.61377633 559.43013501 -681.58666992 558.54077148 C-673.36844615 551.48022319 -664.62198517 545.29960345 -655.68823242 539.18530273 C-654.70669189 538.51168701 -654.70669189 538.51168701 -653.70532227 537.82446289 C-644.57738852 531.58296132 -635.25053805 525.73713037 -625.68823242 520.18530273 C-625.07963379 519.83145508 -624.47103516 519.47760742 -623.84399414 519.11303711 C-611.67273106 512.0734591 -599.2196881 505.55694497 -586.68823242 499.18530273 C-585.37749756 498.5167627 -585.37749756 498.5167627 -584.0402832 497.8347168 C-553.14826023 482.2153527 -520.48789994 470.11531705 -487.68823242 459.18530273 C-486.94091858 458.93498291 -486.19360474 458.68466309 -485.42364502 458.42675781 C-389.64377237 426.37318362 -288.91257172 408.98467646 -157.41492867 395.12508941 C-154.8742135 394.88518246 -152.33360749 394.64414506 -149.79302025 394.40288734 C-110.85872183 390.70851348 -71.90885071 387.18162227 -32.96038485 383.64051771 C-27.7370883 383.16562186 -22.51381203 382.69050323 -17.29053879 382.2153511 C-6.6776887 381.24994798 3.93519448 380.28490917 14.5480957 379.32006836 C15.87751492 379.19920434 15.87751492 379.19920434 17.23379108 379.07589862 C39.14877431 377.08354769 61.06406913 375.09468912 82.97986712 373.11132022 C98.26876846 371.7275505 113.55716138 370.33825774 128.84512454 368.94416124 C138.18436048 368.0927198 147.52396955 367.24563319 156.86413572 366.40445641 C163.22226508 365.83145342 169.57989931 365.25315762 175.93717655 364.67077734 C179.58705427 364.33657957 183.2370975 364.00463997 186.88776207 363.67914009 C229.15706123 361.03652019 229.15706123 361.03652019 265.31176758 341.18530273 C269.91959215 335.16953176 271.94512157 329.78555064 271.31176758 322.18530273 C268.49840206 307.95298305 259.16309987 298.22124493 247.49926758 290.24780273 C232.96118452 280.67072127 216.83773571 274.4131003 200.31176758 269.18530273 C199.49546875 268.92652344 198.67916992 268.66774414 197.83813477 268.40112305 C166.23408809 258.5490516 133.33716349 253.56495457 100.49926758 249.99780273 C99.7940094 249.91898865 99.08875122 249.84017456 98.36212158 249.75897217 C69.37720091 246.56195024 40.28566775 245.84674987 11.15185547 245.92456055 C6.86723374 245.93592667 2.58286147 245.92917363 -1.70175171 245.91768265 C-32.72643921 245.84725428 -63.66387691 247.07223229 -94.56323242 249.93530273 C-95.92744324 250.05935486 -95.92744324 250.05935486 -97.31921387 250.18591309 C-168.37584539 256.69244219 -239.13736353 268.63350783 -308.21923828 286.54528809 C-310.74005502 287.19873623 -313.26195113 287.84790083 -315.78393555 288.49682617 C-353.23611818 298.16221285 -390.12423712 309.58258341 -426.68823242 322.18530273 C-427.40867737 322.43326599 -428.12912231 322.68122925 -428.87139893 322.93670654 C-465.20423328 335.46776661 -500.82060979 350.02598909 -535.68823242 366.18530273 C-537.03805103 366.80729995 -538.38799042 367.4290351 -539.73803711 368.05053711 C-567.699339 380.93797502 -595.04293622 394.73178375 -621.68823242 410.18530273 C-622.89308803 410.88185793 -624.09800632 411.57830472 -625.30297852 412.2746582 C-628.52822398 414.13990159 -631.74983062 416.0113044 -634.96899414 417.88702393 C-636.2143801 418.61252901 -637.4602888 419.33713771 -638.70678711 420.06072998 C-646.09065627 424.35242731 -653.25981477 428.82148356 -660.25585938 433.72314453 C-662.68823242 435.18530273 -662.68823242 435.18530273 -665.68823242 435.18530273 C-665.96246977 434.63590625 -666.23670712 434.08650976 -666.51925468 433.5204649 C-673.23829389 420.06015827 -679.95963454 406.60100351 -686.68343925 393.1430769 C-689.93516173 386.63450812 -693.18614609 380.12557276 -696.43530273 373.61572266 C-699.27217283 367.9319145 -702.11051966 362.2488465 -704.95053494 356.5666092 C-706.44978079 353.56683063 -707.94813546 350.56661559 -709.4451561 347.56572533 C-715.18282956 336.06520353 -720.95541394 324.59359987 -726.98055649 313.24075127 C-732.28772289 303.21235677 -737.32015322 293.04526586 -742.38354492 282.89233398 C-743.46766797 280.72221703 -744.5519711 278.55219003 -745.63644409 276.38224792 C-748.45588734 270.73958874 -751.272924 265.0957316 -754.0894165 259.45159912 C-756.9776391 253.66482533 -759.86819778 247.8792187 -762.75854492 242.09350586 C-768.40402763 230.791896 -774.04704178 219.48905553 -779.68823242 208.18530273 C-776.76476738 205.22207879 -774.02869182 202.53622689 -770.52807617 200.27514648 C-769.74505127 199.76653076 -768.96202637 199.25791504 -768.15527344 198.73388672 C-767.3205249 198.202229 -766.48577637 197.67057129 -765.62573242 197.12280273 C-764.74522217 196.55698486 -763.86471191 195.99116699 -762.95751953 195.40820312 C-753.65431111 189.46496915 -744.21213395 183.76654391 -734.68823242 178.18530273 C-733.89465332 177.71833984 -733.10107422 177.25137695 -732.28344727 176.77026367 C-679.5719488 145.8544918 -623.88962374 120.56270275 -566.68823242 99.18530273 C-565.97783813 98.91884949 -565.26744385 98.65239624 -564.53552246 98.37786865 C-464.31337262 60.80807064 -359.91622687 35.62853186 -95.56323242 2.49780273 C-94.05487823 2.40639511 -94.05487823 2.40639511 -92.51605225 2.31314087 C-85.5752523 1.89814354 -78.63278251 1.53128669 -71.68823242 1.18530273 C-70.75332977 1.13584503 -69.81842712 1.08638733 -68.85519409 1.03543091 C-45.92229881 -0.14758502 -22.95634724 -0.00205882 0 0 Z M254.95075798 557.72073746 C254.29942579 557.77863215 253.64809361 557.83652684 252.97702408 557.89617592 C250.77890971 558.09189065 248.58097118 558.28951513 246.38302612 558.48712158 C244.79687049 558.62875167 243.21070449 558.77026573 241.624529 558.91167331 C237.25233854 559.30180086 232.88029938 559.69360193 228.50828266 560.08567119 C223.7959359 560.50797225 219.08345273 560.9287459 214.37098694 561.34971619 C205.12318102 562.17609024 195.87550618 563.00392244 186.62787776 563.83228025 C179.09210892 564.5072763 171.55629569 565.18177474 164.02045059 565.85591888 C162.94752846 565.95190164 161.87460632 566.04788439 160.76917139 566.14677571 C158.58902405 566.34180857 156.40887663 566.53684064 154.22872914 566.73187193 C133.74527916 568.56434371 113.26198035 570.39850076 92.77872945 572.23319635 C75.28368398 573.80019291 57.78849964 575.36563127 40.29321289 576.92993164 C19.94178413 578.74960731 -0.40954512 580.57039026 -20.76072967 582.39279532 C-22.9444584 582.58833985 -25.1281873 582.78388259 -27.31191635 582.97942352 C-28.92308578 583.12369504 -28.92308578 583.12369504 -30.56680409 583.27088113 C-38.05561039 583.94138595 -45.54448552 584.61111841 -53.03339005 585.28052521 C-62.21757615 586.10148416 -71.40165347 586.92364864 -80.58560391 587.74723992 C-85.25279611 588.16575118 -89.92002875 588.58379341 -94.58739662 589.00034142 C-113.71685451 590.7079915 -132.84050094 592.4656957 -151.95602417 594.32342529 C-152.81716187 594.40677373 -153.67829956 594.49012216 -154.56553234 594.57599631 C-167.2864 595.80958566 -179.9738635 597.17407672 -192.62573242 598.99780273 C-193.92954865 599.18247604 -193.92954865 599.18247604 -195.25970459 599.37088013 C-221.4914515 603.10913256 -247.36171376 608.30825013 -272.68823242 616.18530273 C-273.85878174 616.54591797 -273.85878174 616.54591797 -275.05297852 616.91381836 C-299.4522526 624.57060713 -326.07658319 636.5580257 -339.46948242 659.50561523 C-342.63645837 666.4689021 -344.25079445 672.77105862 -344.18823242 680.43530273 C-344.18251221 681.2601416 -344.17679199 682.08498047 -344.17089844 682.93481445 C-343.83469432 694.56498651 -339.46769427 703.66568965 -331.68823242 712.18530273 C-331.03081055 712.93424805 -330.37338867 713.68319336 -329.69604492 714.45483398 C-294.89999491 751.8637742 -225.07090254 753.87694211 -177.93823242 755.81030273 C-90.62153944 758.79657033 -1.04546769 751.95198781 220.09399414 656.54467773 C242.51585359 635.58005546 263.26599197 604.84699602 264.38769531 573.03173828 C264.40977382 570.62369284 264.39923092 568.21830481 264.37426758 565.81030273 C264.3675 564.56313477 264.3675 564.56313477 264.3605957 563.29077148 C264.34889922 561.25558376 264.33096693 559.22043351 264.31176758 557.18530273 C261.15396194 557.18530273 258.09664819 557.43934372 254.95075798 557.72073746 Z " fill="#007890" transform="translate(4578.688232421875,878.814697265625)"/>
<path d="M0 0 C0 109.89 0 219.78 0 333 C192.06 333 384.12 333 582 333 C582 421.11 582 509.22 582 600 C389.94 600 197.88 600 0 600 C-20.8786555 780.01992646 -20.8786555 780.01992646 45.4921875 977.51953125 C81.29022909 1011.02884559 132.16433463 1020.28289133 179.5625 1021.625 C180.3321106 1021.64679321 181.10172119 1021.66858643 181.89465332 1021.69104004 C285.56398633 1024.49059914 380.09910626 990.93670297 518.36328125 883.29296875 C520 882 520 882 522 882 C522.28052216 882.74879929 522.56104431 883.49759857 522.85006714 884.26908875 C526.52405529 894.07559675 530.19912529 903.88169901 533.875 913.6875 C534.17740601 914.49420135 534.47981201 915.30090271 534.79138184 916.13204956 C543.83783811 940.2634267 552.90611166 964.38646002 562 988.5 C571.98251806 1014.97040162 581.93190661 1041.4531008 591.86060715 1067.94373512 C592.3972381 1069.37538698 592.93398312 1070.80699608 593.47084427 1072.23856163 C594.77239626 1075.70980665 596.07179975 1079.18182378 597.36639404 1082.65567017 C599.75150666 1089.04907432 602.15791107 1095.43207744 604.63604546 1101.79010868 C605.79331433 1104.76241557 606.93961532 1107.73889738 608.0851326 1110.71574974 C608.63310191 1112.1302244 609.18658107 1113.54257817 609.74583054 1114.952631 C610.51574917 1116.8946156 611.26678278 1118.84295297 612.01416016 1120.79370117 C612.44701324 1121.89896652 612.87986633 1123.00423187 613.32583618 1124.14299011 C614 1127 614 1127 613.2762146 1129.23286438 C611.35528812 1131.89271298 609.00162336 1134.01858237 606.5625 1136.1875 C606.02391357 1136.67307373 605.48532715 1137.15864746 604.93041992 1137.65893555 C600.75177507 1141.39759404 596.46240516 1144.9849901 592.09375 1148.5 C589.74368 1150.39904647 587.41356378 1152.31458696 585.09375 1154.25 C575.61463273 1162.14853264 565.95757075 1169.71505431 556 1177 C555.27135742 1177.53512207 554.54271484 1178.07024414 553.79199219 1178.62158203 C543.70292789 1186.02008441 533.50472015 1193.20359139 523 1200 C522.30390625 1200.45165527 521.6078125 1200.90331055 520.890625 1201.36865234 C498.95953323 1215.54706429 476.33737305 1228.2877611 453 1240 C451.90848633 1240.55042969 450.81697266 1241.10085938 449.69238281 1241.66796875 C377.90430893 1277.67962095 299.56738165 1297.77526094 172.62011719 1313.77996826 C170.03238206 1313.99728063 167.44591687 1314.22648181 164.859375 1314.45751953 C134.19216899 1317.14014116 103.49371911 1317.31704404 72.73165131 1317.36836243 C69.55986767 1317.37487704 66.3881348 1317.3863238 63.21636963 1317.39880371 C-18.46504138 1317.67746067 -99.52811265 1307.66509364 -248 1252 C-248.86367187 1251.56945313 -249.72734375 1251.13890625 -250.6171875 1250.6953125 C-278.93097296 1236.49075346 -305.41456431 1217.70941434 -328.625 1196.19140625 C-330.71310039 1194.26472151 -332.83861873 1192.40577475 -335 1190.5625 C-342.9587291 1183.63333955 -350.11138674 1175.97432381 -357 1168 C-357.52102295 1167.40695068 -358.0420459 1166.81390137 -358.57885742 1166.20288086 C-374.42217027 1148.09587749 -388.1237544 1127.45994143 -399 1106 C-399.40621582 1105.20529297 -399.81243164 1104.41058594 -400.23095703 1103.59179688 C-424.06492965 1056.52724336 -434.8304458 1004.47770871 -435.28125 951.9296875 C-435.29925556 950.18100205 -435.31754179 948.43231947 -435.33607483 946.68363953 C-435.38634684 941.79348102 -435.43022082 936.90328334 -435.47252274 932.01305008 C-435.50028529 928.84241839 -435.52959299 925.67180426 -435.55929565 922.50119019 C-436.00819766 874.2477311 -436.26518488 825.99264575 -436.52865601 777.73789215 C-436.55642971 772.65636905 -436.58472704 767.57484902 -436.61316341 762.49332958 C-436.67391285 751.62669346 -436.7318232 740.76004563 -436.78726006 729.89338112 C-436.80573063 726.28320618 -436.82501485 722.6730375 -436.84523201 719.06287193 C-437.06371691 679.37479181 -437 639.68965101 -437 600 C-524.78 600 -612.56 600 -703 600 C-703 511.89 -703 423.78 -703 333 C-615.22 333 -527.44 333 -437 333 C-437 248.85 -437 164.7 -437 78 C-413.87643508 73.37528702 -413.87643508 73.37528702 -403.43462467 71.53216362 C-402.6621411 71.39553047 -401.88965754 71.25889732 -401.09376538 71.11812377 C-400.29284966 70.97650132 -399.49193394 70.83487888 -398.66674805 70.68896484 C-396.92060574 70.37851756 -395.17449758 70.06787823 -393.42842007 69.75706673 C-388.70058707 68.91603278 -383.97228942 68.07763874 -379.24390459 67.23971367 C-374.13349815 66.33357928 -369.02354802 65.42487834 -363.9135437 64.51647949 C-355.10366403 62.95069324 -346.29351856 61.38641032 -337.48318481 59.82318115 C-323.59184147 57.35839463 -309.70102869 54.89062652 -295.81030273 52.42236328 C-291.07313826 51.58064175 -286.33597024 50.73894014 -281.59880066 49.89724731 C-280.41824067 49.68748524 -279.23768068 49.47772317 -278.02134615 49.26160467 C-269.57262601 47.76047581 -261.12382995 46.25977472 -252.67500305 44.75924683 C-219.56069853 38.87794654 -186.44775364 32.98904345 -153.3359375 27.09375 C-151.67406052 26.79787074 -151.67406052 26.79787074 -149.97861028 26.49601412 C-136.97986737 24.18171631 -123.9811732 21.86714486 -110.98250455 19.55243003 C-94.78026246 16.66725169 -78.57796219 13.7824002 -62.37559938 10.89789987 C-57.00470833 9.94171454 -51.63383998 8.98540184 -46.2629928 8.02897012 C-42.99079499 7.44628748 -39.71857812 6.8637119 -36.44635642 6.28116345 C-34.96565568 6.0175344 -33.48496259 5.75386248 -32.00427854 5.49013972 C-28.02480163 4.78137235 -24.0451666 4.07350552 -20.06530118 3.3669219 C-18.60010985 3.10661566 -17.13498179 2.84595311 -15.66989779 2.58504343 C-13.29752785 2.16265605 -10.9249602 1.74139488 -8.55235291 1.32034302 C-7.81217535 1.18832863 -7.07199779 1.05631424 -6.3093906 0.92029941 C-1.11388173 0 -1.11388173 0 0 0 Z " fill="#007890" transform="translate(3057,577)"/>
<path d="M0 0 C153.45 0 306.9 0 465 0 C473 16.5 481 33 489 49.5 C490.57189047 52.74192874 490.57189047 52.74192874 492.14378357 55.9838562 C494.75425872 61.36781938 497.36453279 66.75187988 499.97433472 72.13616943 C507.14357562 86.92702223 514.31732033 101.71566805 521.5 116.5 C527.02527673 127.87284816 532.54689071 139.24745994 538.0625 150.625 C538.39105988 151.30274475 538.71961975 151.9804895 539.05813599 152.67877197 C541.70218935 158.13298875 544.34591445 163.58736463 546.98962402 169.04174805 C549.3054274 173.81957398 551.62136412 178.59733525 553.9375 183.375 C554.43021896 184.39137543 554.43021896 184.39137543 554.93289185 185.42828369 C560.11691471 196.12129281 565.30710248 206.81129827 570.5 217.5 C576.02527673 228.87284816 581.54689071 240.24745994 587.0625 251.625 C587.39105988 252.30274475 587.71961975 252.9804895 588.05813599 253.67877197 C590.70218935 259.13298875 593.34591445 264.58736463 595.98962402 270.04174805 C598.3054274 274.81957398 600.62136412 279.59733525 602.9375 284.375 C603.26597931 285.05258362 603.59445862 285.73016724 603.93289185 286.42828369 C609.11691471 297.12129281 614.30710248 307.81129827 619.5 318.5 C625.02527673 329.87284816 630.54689071 341.24745994 636.0625 352.625 C636.39105988 353.30274475 636.71961975 353.9804895 637.05813599 354.67877197 C639.70218935 360.13298875 642.34591445 365.58736463 644.98962402 371.04174805 C647.3054274 375.81957398 649.62136412 380.59733525 651.9375 385.375 C652.26597931 386.05258362 652.59445862 386.73016724 652.93289185 387.42828369 C658.11691471 398.12129281 663.30710248 408.81129827 668.5 419.5 C674.02527673 430.87284816 679.54689071 442.24745994 685.0625 453.625 C685.39105988 454.30274475 685.71961975 454.9804895 686.05813599 455.67877197 C688.70218935 461.13298875 691.34591445 466.58736463 693.98962402 472.04174805 C696.3054274 476.81957398 698.62136412 481.59733525 700.9375 486.375 C701.26597931 487.05258362 701.59445862 487.73016724 701.93289185 488.42828369 C707.11691471 499.12129281 712.30710248 509.81129827 717.5 520.5 C725.01344856 535.96516378 732.51673389 551.43523627 740.01611328 566.90722656 C742.00916113 571.01901548 744.00257335 575.13062767 745.99609375 579.2421875 C746.32629517 579.92321533 746.65649658 580.60424316 746.9967041 581.3059082 C747.99779675 583.37060837 748.99889688 585.43530491 750 587.5 C757.37610881 602.71263428 757.37610881 602.71263428 760.97418213 610.13586426 C762.29792143 612.86685646 763.62176967 615.59779584 764.94561768 618.32873535 C765.60465027 619.68832718 766.26362689 621.04794613 766.92254639 622.40759277 C770.79968426 630.40783774 774.68263004 638.40521103 778.57421875 646.3984375 C779.72044974 648.75397783 780.86659601 651.10955937 782.01272583 653.46514893 C782.74065068 654.96046359 783.46904605 656.45554932 784.19796753 657.95037842 C788.57193263 666.92027369 792.86120538 675.9184582 797 685 C799.40786481 681.99658937 801.10409349 678.96798206 802.7578125 675.49609375 C803.29188721 674.38153809 803.82596191 673.26698242 804.3762207 672.11865234 C804.65986481 671.52155457 804.94350891 670.92445679 805.23574829 670.30926514 C806.46534866 667.72110805 807.70477457 665.13769217 808.94337463 662.55383301 C809.6053718 661.1724847 810.26685002 659.79088759 810.92784119 658.40905762 C814.3395818 651.27865552 817.79218192 644.16830675 821.24972534 637.06002808 C822.32264757 634.85413695 823.39494023 632.64794086 824.46704102 630.44165039 C825.91859808 627.45450014 827.37033585 624.46743786 828.82226562 621.48046875 C832.40358712 614.11258325 835.98314849 606.74384268 839.5625 599.375 C839.91413208 598.65111084 840.26576416 597.92722168 840.62805176 597.18139648 C848.42722571 581.1250629 856.21439339 565.06291553 864 549 C866.64566389 543.54158452 869.29144006 538.0832235 871.9375 532.625 C872.26597931 531.94741638 872.59445862 531.26983276 872.93289185 530.57171631 C878.47346187 519.14326251 884.02141719 507.71840566 889.57147217 496.29455566 C894.73949676 485.65681005 899.90342344 475.01708815 905.0625 464.375 C905.55533981 463.35838287 905.55533981 463.35838287 906.05813599 462.32122803 C908.37227178 457.54757314 910.6861651 452.77380074 913 448 C915.64566389 442.54158452 918.29144006 437.0832235 920.9375 431.625 C921.26597931 430.94741638 921.59445862 430.26983276 921.93289185 429.57171631 C927.47346187 418.14326251 933.02141719 406.71840566 938.57147217 395.29455566 C943.73949676 384.65681005 948.90342344 374.01708815 954.0625 363.375 C954.55533981 362.35838287 954.55533981 362.35838287 955.05813599 361.32122803 C957.37227178 356.54757314 959.6861651 351.77380074 962 347 C964.64566389 341.54158452 967.29144006 336.0832235 969.9375 330.625 C970.26597931 329.94741638 970.59445862 329.26983276 970.93289185 328.57171631 C976.47346187 317.14326251 982.02141719 305.71840566 987.57147217 294.29455566 C992.73949676 283.65681005 997.90342344 273.01708815 1003.0625 262.375 C1003.55533981 261.35838287 1003.55533981 261.35838287 1004.05813599 260.32122803 C1006.37227178 255.54757314 1008.6861651 250.77380074 1011 246 C1013.64566389 240.54158452 1016.29144006 235.0832235 1018.9375 229.625 C1019.43021896 228.60862457 1019.43021896 228.60862457 1019.93289185 227.57171631 C1025.47346187 216.14326251 1031.02141719 204.71840566 1036.57147217 193.29455566 C1043.72763181 178.56447756 1050.87322314 163.82928978 1058.01611328 149.09277344 C1061.67714417 141.53982569 1065.33932261 133.98743425 1069.00128174 126.43493652 C1070.00216356 124.37069023 1071.0030379 122.30644032 1072.00390625 120.2421875 C1072.33410767 119.56115967 1072.66430908 118.88013184 1073.0045166 118.1784668 C1074.99469687 114.0737048 1076.98461931 109.96881792 1078.97433472 105.86383057 C1085.78806808 91.80642497 1092.60511908 77.75064694 1099.43154907 63.69940186 C1100.49381818 61.51272525 1101.55590307 59.32595928 1102.61791992 57.13916016 C1103.32340377 55.68652286 1104.02888879 54.23388615 1104.734375 52.78125 C1105.08341385 52.0625473 1105.4324527 51.3438446 1105.79206848 50.60336304 C1107.9737405 46.11155805 1110.1570423 41.62054885 1112.34130859 37.13000488 C1113.7973123 34.13598937 1115.25216733 31.1414166 1116.70678711 28.14672852 C1117.39004215 26.740723 1118.07378049 25.33495221 1118.75805664 23.92944336 C1119.70979543 21.97442414 1120.65976175 20.01855236 1121.609375 18.0625 C1122.14530273 16.96035156 1122.68123047 15.85820313 1123.23339844 14.72265625 C1125.54898645 9.84315294 1127.7650235 4.91694829 1130 0 C1283.78 0 1437.56 0 1596 0 C1591.20213897 9.59572207 1586.41442972 19.13505362 1581.3125 28.5625 C1580.7129248 29.67399414 1580.11334961 30.78548828 1579.49560547 31.93066406 C1575.11219492 40.02506284 1570.59903068 48.03916186 1566.03637695 56.03344727 C1561.181217 64.58422784 1556.57054935 73.25659269 1551.9697876 81.94567871 C1547.10342788 91.13053174 1542.0952377 100.21505828 1536.93359375 109.23828125 C1532.10624732 117.7187547 1527.53362042 126.32574366 1522.9682312 134.9487915 C1518.61725228 143.16144325 1514.1816683 151.3088644 1509.5625 159.375 C1504.34765647 168.48463895 1499.39636741 177.71699279 1494.5 187 C1489.11603565 197.20744069 1483.61841111 207.32416275 1477.8828125 217.33984375 C1473.43305978 225.14623376 1469.20386803 233.05966425 1465 241 C1460.30719962 249.86383929 1455.54716941 258.67042805 1450.5625 267.375 C1444.89361798 277.2797149 1439.52938727 287.33162 1434.19863892 297.42059326 C1429.74733716 305.84464953 1425.26342466 314.24315515 1420.59814453 322.55126953 C1417.22702482 328.56065685 1413.95535567 334.62144367 1410.6875 340.6875 C1406.44600964 348.55453013 1402.11753418 356.36270573 1397.6875 364.125 C1392.26310008 373.63776113 1387.09245688 383.27058436 1381.96905518 392.94714355 C1377.61780516 401.16035055 1373.18197562 409.30832775 1368.5625 417.375 C1362.9583715 427.16466808 1357.66489899 437.10234508 1352.40380859 447.0786438 C1347.24710667 456.85085351 1341.94637144 466.5204614 1336.4609375 476.11328125 C1333.18808526 481.85107763 1330.04269326 487.63712963 1327 493.5 C1323.46112938 500.31893899 1319.75102377 507.01848403 1315.9375 513.6875 C1310.60157637 523.02856535 1305.51739592 532.48580489 1300.5 542 C1295.11624547 552.20754723 1289.61840612 562.32417148 1283.8828125 572.33984375 C1279.43305978 580.14623376 1275.20386803 588.05966425 1271 596 C1266.30719962 604.86383929 1261.54716941 613.67042805 1256.5625 622.375 C1250.89361798 632.2797149 1245.52938727 642.33162 1240.19863892 652.42059326 C1235.74733716 660.84464953 1231.26342466 669.24315515 1226.59814453 677.55126953 C1223.22702482 683.56065685 1219.95535567 689.62144367 1216.6875 695.6875 C1212.44600964 703.55453013 1208.11753418 711.36270573 1203.6875 719.125 C1198.26310008 728.63776113 1193.09245688 738.27058436 1187.96905518 747.94714355 C1183.61780516 756.16035055 1179.18197562 764.30832775 1174.5625 772.375 C1169.34765647 781.48463895 1164.39636741 790.71699279 1159.5 800 C1154.11603565 810.20744069 1148.61841111 820.32416275 1142.8828125 830.33984375 C1138.43305978 838.14623376 1134.20386803 846.05966425 1130 854 C1125.30719962 862.86383929 1120.54716941 871.67042805 1115.5625 880.375 C1109.8957212 890.27604013 1104.53274694 900.32389725 1099.2046814 910.40951538 C1094.65729585 919.01716152 1090.08458098 927.60276079 1085.3059082 936.08520508 C1081.77885942 942.34615453 1078.41064405 948.66594676 1075 955 C889.54 955 704.08 955 513 955 C411.5 766.49999999 411.5 766.49999999 409.74951172 763.24902344 C408.58455033 761.08557015 407.41951145 758.92215859 406.25439453 756.75878906 C403.31099563 751.29329969 400.36900883 745.82705848 397.4296875 740.359375 C392.00194085 730.26577514 386.56251697 720.17942995 381.0625 710.125 C375.56582414 700.07414596 370.15406227 689.978457 364.7510376 679.8770752 C364.27679352 678.99046204 364.27679352 678.99046204 363.79296875 678.0859375 C363.4766449 677.49453979 363.16032104 676.90314209 362.83441162 676.29382324 C359.54627936 670.14837537 356.24327146 664.01097253 352.9375 657.875 C352.07729248 656.27833496 352.07729248 656.27833496 351.19970703 654.64941406 C350.04451195 652.50549163 348.88923869 650.36161132 347.73388672 648.21777344 C344.82129735 642.81254563 341.9107577 637.40621432 339 632 C337.83334304 629.83332811 336.66667637 627.66666144 335.5 625.5 C258.5 482.5 258.5 482.5 256.74951172 479.24902344 C255.58455033 477.08557015 254.41951145 474.92215859 253.25439453 472.75878906 C250.31099563 467.29329969 247.36900883 461.82705848 244.4296875 456.359375 C239.00194085 446.26577514 233.56251697 436.17942995 228.0625 426.125 C222.56582414 416.07414596 217.15406227 405.978457 211.7510376 395.8770752 C211.27679352 394.99046204 211.27679352 394.99046204 210.79296875 394.0859375 C210.31848297 393.19884094 210.31848297 393.19884094 209.83441162 392.29382324 C206.54627936 386.14837537 203.24327146 380.01097253 199.9375 373.875 C199.36402832 372.81055664 198.79055664 371.74611328 198.19970703 370.64941406 C197.04451195 368.50549163 195.88923869 366.36161132 194.73388672 364.21777344 C191.82129735 358.81254563 188.9107577 353.40621432 186 348 C184.83334304 345.83332811 183.66667637 343.66666144 182.5 341.5 C105.5 198.5 105.5 198.5 103.74951172 195.24902344 C102.58455033 193.08557015 101.41951145 190.92215859 100.25439453 188.75878906 C97.31099563 183.29329969 94.36900883 177.82705848 91.4296875 172.359375 C86.00194085 162.26577514 80.56251697 152.17942995 75.0625 142.125 C69.56582414 132.07414596 64.15406227 121.978457 58.7510376 111.8770752 C58.43487488 111.28599976 58.11871216 110.69492432 57.79296875 110.0859375 C57.4766449 109.49453979 57.16032104 108.90314209 56.83441162 108.29382324 C53.54627936 102.14837537 50.24327146 96.01097253 46.9375 89.875 C46.36402832 88.81055664 45.79055664 87.74611328 45.19970703 86.64941406 C44.04451195 84.50549163 42.88923869 82.36161132 41.73388672 80.21777344 C39.40555803 75.89682552 37.07857344 71.57515452 34.75170898 67.25341797 C33.58597247 65.08831626 32.42012002 62.92327696 31.25415039 60.75830078 C28.31081314 55.29298478 25.36892271 49.82689828 22.4296875 44.359375 C21.84074707 43.26439697 21.25180664 42.16941895 20.64501953 41.04125977 C19.47605438 38.86762954 18.3077472 36.69364532 17.14013672 34.51928711 C14.27413708 29.19002634 11.38593272 23.87485801 8.453125 18.58203125 C7.89254395 17.5672168 7.33196289 16.55240234 6.75439453 15.50683594 C5.69311678 13.589094 4.62663868 11.6742178 3.55419922 9.76269531 C3.0851416 8.91416992 2.61608398 8.06564453 2.1328125 7.19140625 C1.71918457 6.45092041 1.30555664 5.71043457 0.87939453 4.94750977 C-0 3 -0 3 0 0 Z " fill="#007890" transform="translate(0,910)"/>
<path d="M0 0 C3.82654983 0.26907415 5.8880985 2.40467531 8.61328125 4.93359375 C9.93126709 6.1553833 9.93126709 6.1553833 11.27587891 7.40185547 C15.63965404 11.56382849 19.9333287 15.78870916 24.1875 20.0625 C25.03763672 20.90876953 25.88777344 21.75503906 26.76367188 22.62695312 C31.71839193 27.58932525 36.44764407 32.66793128 41 38 C41.9492931 39.08310853 42.89976078 40.16518905 43.8515625 41.24609375 C51.65279296 50.18961245 58.91492332 59.48207031 66 69 C66.53238281 69.71140137 67.06476563 70.42280273 67.61328125 71.15576172 C79.86513878 87.58472761 90.75931489 104.76976743 100.8125 122.625 C101.72020142 124.23483765 101.72020142 124.23483765 102.64624023 125.87719727 C103.48070679 127.38044556 103.48070679 127.38044556 104.33203125 128.9140625 C104.82421143 129.8004541 105.3163916 130.6868457 105.82348633 131.60009766 C106.8812401 133.75774853 107.53500039 135.65285913 108 138 C112.50287432 135.51269799 116.25935847 132.40711356 120.1875 129.125 C128.83850231 122.00377874 137.81780188 115.41691114 147 109 C147.61101562 108.57154785 148.22203125 108.1430957 148.8515625 107.70166016 C230.2646504 51 230.2646504 51 262 51 C270.35363474 69.02239375 277.71918371 87.1359583 284 106 C284.36077637 107.08104004 284.72155273 108.16208008 285.09326172 109.27587891 C296.28375212 143.21881866 303.87609652 179.0165517 306.67578125 214.6953125 C306.7888888 217.87589834 306.7888888 217.87589834 308 220 C308.9072583 219.73372803 309.8145166 219.46745605 310.74926758 219.19311523 C366.65117598 202.87081339 423.67037403 194.12088123 482 198 C482.82316176 300.66656423 462.41984652 396.52173376 380 520 C379.45601562 520.68819824 378.91203125 521.37639648 378.3515625 522.08544922 C372.04618389 530.03562876 365.57654336 537.75540833 358.6328125 545.15625 C356.63764647 547.31126612 354.71291259 549.48844297 352.80078125 551.71484375 C348.44200313 556.71739805 343.76298663 561.38317085 339.0625 566.0625 C338.20720703 566.92166016 337.35191406 567.78082031 336.47070312 568.66601562 C331.47510982 573.65398788 326.36186425 578.41086464 321 583 C319.84326911 584.02142188 318.68828004 585.04482016 317.53515625 586.0703125 C308.35388301 594.17305873 298.83179289 601.70431557 289 609 C288.27409668 609.54156738 287.54819336 610.08313477 286.80029297 610.64111328 C269.04852802 623.84416002 250.3647215 635.32238669 231 646 C230.11393066 646.48968262 229.22786133 646.97936523 228.31494141 647.48388672 C172.00212894 678.35263066 109.7071551 695.68602916 46 702 C45.0085498 702.09877441 44.01709961 702.19754883 42.99560547 702.29931641 C-46.07285658 710.45421721 -135.32891243 691.98193528 -218 651 C-218.83305664 650.58814453 -219.66611328 650.17628906 -220.52441406 649.75195312 C-254.88398321 632.65042016 -287.28932919 609.97839618 -315.65625 584.125 C-317.80692711 582.17505276 -319.98824971 580.26973871 -322.1875 578.375 C-325.34771059 575.62644009 -328.29616482 572.72834766 -331.2265625 569.73828125 C-333.04165603 567.95916975 -334.9329289 566.32636237 -336.875 564.6875 C-340.73650408 561.3502154 -344.08065006 557.69537092 -347.44921875 553.8671875 C-349.86049858 551.15680558 -352.32258605 548.50676275 -354.80761719 545.86450195 C-360.8272373 539.45497858 -366.55556872 532.91091519 -372 526 C-372.50080078 525.37174316 -373.00160156 524.74348633 -373.51757812 524.09619141 C-392.75836513 499.94298388 -409.56401537 474.3086253 -424 447 C-424.46083984 446.12891602 -424.92167969 445.25783203 -425.39648438 444.36035156 C-463.93267953 370.86374972 -484.20233574 283.91339529 -478 198 C-420.27816327 193.03468071 -357.35045024 201.24447621 -303 221 C-303.03351563 219.80632812 -303.06703125 218.61265625 -303.1015625 217.3828125 C-303.09389059 210.81821121 -302.22575714 204.3754374 -301.375 197.875 C-301.28697113 197.20215973 -301.19894226 196.52931946 -301.10824585 195.83609009 C-294.55056781 146.25359321 -281.55885309 95.37324311 -258 51 C-249.83900978 53.21394155 -242.10982293 56.24722146 -234.3125 59.5 C-233.68027527 59.76322052 -233.04805054 60.02644104 -232.39666748 60.29763794 C-197.39724587 74.90149597 -164.41671578 93.31799954 -134 116 C-132.58242328 117.04480295 -131.16445835 118.08907938 -129.74609375 119.1328125 C-121.59552436 125.15855874 -113.70082035 131.40763107 -106 138 C-105.41734375 136.93265625 -104.8346875 135.8653125 -104.234375 134.765625 C-85.60408741 100.82224388 -64.51747 67.96632372 -38.1953125 39.40625 C-36.33079001 37.36257411 -34.50696712 35.29394987 -32.69140625 33.20703125 C-23.04873795 22.16296182 -12.95499979 11.74192486 -2 2 C-1.34 1.34 -0.68 0.68 0 0 Z " fill="#007890" transform="translate(4711,0)"/>
<path d="M0 0 C144.21 0 288.42 0 437 0 C437 315.15 437 630.3 437 955 C292.79 955 148.58 955 0 955 C0 639.85 0 324.7 0 0 Z " fill="#007890" transform="translate(1750,910)"/>
<path d="M0 0 C1.06541016 0.98419922 1.06541016 0.98419922 2.15234375 1.98828125 C38.2602583 36.47170885 56.90012615 88.60197197 58.1640625 137.6875 C58.56404653 160.62579101 56.24476036 182.89897857 50 205 C49.79568359 205.74056641 49.59136719 206.48113281 49.38085938 207.24414062 C40.27339479 239.48167401 21.89601483 267.04673773 -1 291 C-1.95326172 292.01513672 -1.95326172 292.01513672 -2.92578125 293.05078125 C-20.20173014 310.98643225 -42.56284 324.55868882 -65 335 C-66.05815918 335.49282471 -66.05815918 335.49282471 -67.13769531 335.99560547 C-102.90154895 352.38937193 -142.10767482 359.62459247 -181.30224609 359.39111328 C-184.50010785 359.37499946 -187.69670655 359.39110704 -190.89453125 359.41015625 C-209.89253833 359.42964734 -228.8145951 357.67143801 -247.4375 353.8125 C-248.4486084 353.60455811 -249.4597168 353.39661621 -250.50146484 353.18237305 C-287.83088125 345.15778307 -324.89630338 329.11617947 -354 304 C-355.11761719 303.04673828 -355.11761719 303.04673828 -356.2578125 302.07421875 C-368.66151685 291.20562632 -380.60999763 279.60924849 -390 266 C-390.44682129 265.35450195 -390.89364258 264.70900391 -391.35400391 264.04394531 C-398.15242665 254.11482427 -403.959875 243.92169218 -409 233 C-409.53238281 231.86304688 -410.06476563 230.72609375 -410.61328125 229.5546875 C-416.26703636 216.96156887 -420.35454424 203.80098481 -423.25 190.3125 C-423.40098145 189.61423096 -423.55196289 188.91596191 -423.70751953 188.1965332 C-426.62533431 173.74068533 -427.37411449 159.51287255 -427.3125 144.8125 C-427.31067719 143.90858521 -427.30885437 143.00467041 -427.30697632 142.07336426 C-427.26201798 128.82954576 -426.81149778 115.98500535 -424 103 C-423.82839355 102.15211914 -423.65678711 101.30423828 -423.47998047 100.43066406 C-414.97006527 58.80128445 -393.01489183 18.3289938 -360 -9 C-359.20078125 -9.71027344 -358.4015625 -10.42054688 -357.578125 -11.15234375 C-317.49495243 -46.08358312 -263.53668465 -64.3388698 -211 -68 C-210.1553418 -68.06171387 -209.31068359 -68.12342773 -208.44042969 -68.18701172 C-131.78432057 -73.47799545 -56.47030733 -53.17162457 0 0 Z " fill="#007890" transform="translate(2153,450)"/>
</svg>
